<svg width="457" height="347" viewBox="0 0 457 347" fill="none" xmlns="http://www.w3.org/2000/svg">
<g id="undraw_Web_search_re_efla (1) 1" clip-path="url(#clip0)">
<path id="Vector" d="M414.879 0.226746H0.177063V256.384H414.879V0.226746Z" fill="#E6E6E6"/>
<path id="Vector_2" d="M403.021 32.3553H12.0354V241.23H403.021V32.3553Z" fill="white"/>
<path id="Vector_3" d="M414.702 0H0V16.9921H414.702V0Z" fill="#F9A826"/>
<path id="Vector_4" d="M13.0923 11.8367C14.8958 11.8367 16.3577 10.4266 16.3577 8.68729C16.3577 6.94795 14.8958 5.53793 13.0923 5.53793C11.2889 5.53793 9.82697 6.94795 9.82697 8.68729C9.82697 10.4266 11.2889 11.8367 13.0923 11.8367Z" fill="white"/>
<path id="Vector_5" d="M25.4869 11.8367C27.2903 11.8367 28.7522 10.4266 28.7522 8.68729C28.7522 6.94795 27.2903 5.53793 25.4869 5.53793C23.6835 5.53793 22.2215 6.94795 22.2215 8.68729C22.2215 10.4266 23.6835 11.8367 25.4869 11.8367Z" fill="white"/>
<path id="Vector_6" d="M37.8814 11.8367C39.6848 11.8367 41.1468 10.4266 41.1468 8.68729C41.1468 6.94795 39.6848 5.53793 37.8814 5.53793C36.078 5.53793 34.616 6.94795 34.616 8.68729C34.616 10.4266 36.078 11.8367 37.8814 11.8367Z" fill="white"/>
<path id="Vector_7" d="M148.027 54.0278H47.5618V219.558H148.027V54.0278Z" fill="#E6E6E6"/>
<path id="Vector_8" d="M249.09 112.28H165.369V161.305H249.09V112.28Z" fill="#E6E6E6"/>
<path id="Vector_9" d="M249.09 173.994H165.369V219.558H249.09V173.994Z" fill="#E6E6E6"/>
<path id="Vector_10" d="M367.495 54.0278H267.03V126.165H367.495V54.0278Z" fill="#E6E6E6"/>
<path id="Vector_11" d="M367.495 147.421H267.03V219.558H367.495V147.421Z" fill="#E6E6E6"/>
<path id="Vector_12" d="M328.792 131.347V115.817C328.792 110.298 331.065 105.005 335.112 101.102C339.158 97.1992 344.646 95.0067 350.369 95.0067C356.091 95.0067 361.58 97.1992 365.626 101.102C369.673 105.005 371.946 110.298 371.946 115.817V131.347C371.945 132.088 371.639 132.799 371.096 133.323C370.553 133.847 369.816 134.142 369.047 134.143H331.69C330.922 134.142 330.185 133.847 329.642 133.323C329.099 132.799 328.793 132.088 328.792 131.347Z" fill="#2F2E41"/>
<path id="Vector_13" d="M382.274 333.453L374.664 335.484L362.918 308.14L374.15 305.142L382.274 333.453Z" fill="#FFB8B8"/>
<path id="Vector_14" d="M368.626 334.838L383.303 330.921L385.86 339.833L361.942 346.218C361.607 345.047 361.513 343.824 361.667 342.619C361.821 341.414 362.22 340.25 362.841 339.193C363.461 338.136 364.292 337.208 365.284 336.461C366.277 335.713 367.412 335.162 368.626 334.838V334.838Z" fill="#2F2E41"/>
<path id="Vector_15" d="M302.932 339.099H295.035L291.278 309.724H302.933L302.932 339.099Z" fill="#FFB8B8"/>
<path id="Vector_16" d="M289.395 336.923H304.623V346.171H279.806C279.806 344.956 280.054 343.754 280.536 342.632C281.018 341.51 281.724 340.49 282.615 339.631C283.505 338.773 284.562 338.091 285.725 337.627C286.889 337.162 288.136 336.923 289.395 336.923V336.923Z" fill="#2F2E41"/>
<path id="small-hand" d="M293.41 174.929C293.973 175.663 294.697 176.269 295.53 176.704C296.362 177.139 297.284 177.392 298.229 177.447C299.174 177.501 300.12 177.355 301 177.018C301.881 176.682 302.674 176.163 303.324 175.499L324.314 184.605L322.405 173.217L302.765 166.316C301.536 165.337 299.977 164.827 298.384 164.882C296.791 164.937 295.274 165.554 294.121 166.615C292.968 167.677 292.258 169.11 292.127 170.642C291.996 172.174 292.453 173.7 293.41 174.929H293.41Z" fill="#FFB8B8"/>
<path id="Vector_17" d="M337.024 243.41C330.429 243.41 323.601 242.462 317.863 239.644C314.816 238.178 312.117 236.121 309.933 233.602C307.748 231.083 306.126 228.156 305.169 225.005C302.179 215.874 305.949 206.903 309.594 198.228C311.854 192.853 313.987 187.775 314.541 182.77L314.735 180.994C315.597 173.013 316.342 166.12 320.465 163.535C322.602 162.195 325.476 162.118 329.251 163.3L364.704 174.408L363.401 239.318L363.185 239.387C363 239.448 350.502 243.41 337.024 243.41Z" fill="#2F2E41"/>
<path id="Vector_18" d="M328.631 143.093C328.631 143.093 346.021 138.123 359.547 139.987C359.547 139.987 351.818 180.986 354.394 194.653C356.971 208.319 309.63 199.933 319.292 186.888L322.512 171.358C322.512 171.358 316.071 165.146 321.868 157.691L328.631 143.093Z" fill="#F9A826"/>
<path id="Vector_19" d="M320.077 242.179L298.645 238.303L306.127 182.763C306.631 181.213 318.222 146.024 323.487 144.12C327.309 142.821 331.218 141.774 335.187 140.985L335.95 140.837L331.652 147.055L314.542 186.597L320.077 242.179Z" fill="#2F2E41"/>
<path id="Vector_20" d="M308.91 332.293L281.217 327.842L296.758 266.638L319.883 182.939L320.111 184.425C320.129 184.536 322.289 195.47 354.345 190.619L354.627 190.576L354.704 190.841L393.448 322.87L361.893 327.942L333.114 231.614L308.91 332.293Z" fill="#2F2E41"/>
<path id="Vector_21" d="M347 253L347.022 252.533C347.046 252.015 349.424 200.447 348.629 179.708C347.832 158.898 356.605 140.877 356.694 140.698L356.765 140.553L356.959 140.51C368.31 138.02 378.157 145.452 378.255 145.527L378.393 145.634L375.16 166.114L389 240.59L347 253Z" fill="#2F2E41"/>
<path id="Vector_22" d="M345.935 133.781C354.672 133.781 361.755 126.95 361.755 118.524C361.755 110.097 354.672 103.266 345.935 103.266C337.198 103.266 330.116 110.097 330.116 118.524C330.116 126.95 337.198 133.781 345.935 133.781Z" fill="#FFB8B8"/>
<path id="Vector_23" d="M323.688 117.059C323.693 112.695 325.493 108.511 328.692 105.425C331.892 102.338 336.231 100.603 340.756 100.598H343.976C348.502 100.603 352.84 102.338 356.04 105.425C359.24 108.511 361.039 112.695 361.044 117.059V117.37H354.239L351.917 111.101L351.453 117.37H347.936L346.765 114.207L346.53 117.37H323.688V117.059Z" fill="#2F2E41"/>
<path id="Vector_24" d="M344.378 135.889C344.059 135.472 343.868 134.976 343.828 134.458C343.788 133.941 343.9 133.423 344.151 132.965C347.564 126.704 352.342 115.136 346 108.002L345.544 107.49H363.957V134.151L347.23 136.998C347.061 137.027 346.889 137.041 346.717 137.042C346.261 137.042 345.811 136.937 345.404 136.737C344.997 136.536 344.646 136.246 344.378 135.889Z" fill="#2F2E41"/>
<path id="magnifying_glass" d="M270.246 25.8087C257.361 15.323 241.595 8.67522 224.865 6.67427C208.134 4.67331 191.162 7.40547 176.012 14.5383C160.863 21.6711 148.189 32.897 139.534 46.85C130.879 60.803 126.615 76.8815 127.262 93.1289C127.909 109.376 133.438 125.092 143.177 138.364C152.915 151.636 166.444 161.892 182.116 167.883C197.788 173.875 214.928 175.344 231.45 172.112C247.972 168.88 263.163 161.086 275.176 149.678L381.848 236.49C383.471 237.813 385.573 238.461 387.691 238.29C389.809 238.119 391.77 237.143 393.142 235.578C394.514 234.012 395.186 231.985 395.008 229.943C394.831 227.9 393.819 226.009 392.196 224.685L392.184 224.676L285.512 137.864C297.904 120.711 303.208 99.7125 300.384 78.9843C297.56 58.256 286.812 39.2921 270.246 25.8087ZM263.369 129.505C255.059 139.003 244.015 145.912 231.633 149.357C219.252 152.802 206.089 152.629 193.81 148.859C181.531 145.089 170.687 137.892 162.648 128.178C154.61 118.464 149.739 106.669 148.651 94.2848C147.564 81.9007 150.308 69.4836 156.537 58.6037C162.766 47.7238 172.201 38.8698 183.647 33.1613C195.094 27.4528 208.038 25.1462 220.844 26.5332C233.65 27.9202 245.742 32.9385 255.59 40.9535C262.13 46.2753 267.518 52.7872 271.448 60.1174C275.378 67.4476 277.772 75.4526 278.495 83.6754C279.217 91.8981 278.253 100.178 275.658 108.041C273.062 115.904 268.887 123.198 263.369 129.505Z" fill="#3F3D56"/>
<path id="inner_magnifying_glass" opacity="0.3" d="M171.556 137.007C159.057 126.834 150.981 112.499 148.933 96.8495C146.885 81.1998 151.014 65.3795 160.5 52.5299C159.254 53.7399 158.05 55.0072 156.887 56.3316C151.369 62.6386 147.193 69.9319 144.598 77.7953C142.002 85.6587 141.038 93.9382 141.761 102.161C142.483 110.384 144.877 118.389 148.807 125.719C152.737 133.049 158.126 139.561 164.665 144.883C171.204 150.205 178.766 154.232 186.919 156.735C195.072 159.238 203.657 160.168 212.183 159.471C220.708 158.775 229.008 156.465 236.608 152.675C244.209 148.885 250.96 143.688 256.478 137.381C257.638 136.055 258.731 134.697 259.756 133.306C248.219 144.487 232.744 151.074 216.405 151.759C200.065 152.445 184.056 147.179 171.556 137.007V137.007Z" fill="black"/>
<path id="full-hand_two" d="M348.006 215.191C348.926 215.408 349.884 215.428 350.813 215.249C351.741 215.07 352.618 214.697 353.381 214.156C354.144 213.615 354.774 212.92 355.228 212.118C355.682 211.317 355.949 210.429 356.009 209.518L378.186 203.581L369.171 196L349.493 202.8C347.899 202.805 346.362 203.373 345.173 204.398C343.984 205.422 343.226 206.832 343.043 208.359C342.86 209.886 343.264 211.425 344.179 212.685C345.094 213.944 346.455 214.836 348.006 215.191V215.191Z" fill="#FFB8B8"/>
<path id="full-hand" d="M362.496 220L361 202.659L381.533 188.834L368.146 169.059L370.33 146.845L375.77 144L375.939 144.265C378.504 148.29 401 183.712 401 188.091C401 192.588 396.696 205.795 390.808 209.388C385.129 212.853 363.802 219.589 362.897 219.874L362.496 220Z" fill="#2F2E41"/>
<path id="Vector_25" d="M456.356 347H210.959C210.788 347 210.625 346.935 210.504 346.818C210.383 346.702 210.315 346.544 210.315 346.379C210.315 346.214 210.383 346.056 210.504 345.94C210.625 345.823 210.788 345.758 210.959 345.758H456.356C456.527 345.758 456.691 345.823 456.811 345.94C456.932 346.056 457 346.214 457 346.379C457 346.544 456.932 346.702 456.811 346.818C456.691 346.935 456.527 347 456.356 347Z" fill="#CCCCCC"/>
</g>
<defs>
<clipPath id="clip0">
<rect width="457" height="347" fill="white"/>
</clipPath>
</defs>
</svg>
