<svg width="473" height="347" viewBox="0 0 473 347" fill="none" xmlns="http://www.w3.org/2000/svg">
<rect width="473" height="347" fill="#E5E5E5"/>
<g id="Frame">
<path id="Vector" d="M437.054 104.501H270.829V101.484H195.457V104.501H28.5472C25.5649 104.501 22.7048 105.545 20.596 107.402C18.4872 109.26 17.3025 111.779 17.3025 114.406V314.901C17.3025 317.528 18.4872 320.048 20.596 321.905C22.7048 323.763 25.5649 324.806 28.5472 324.806H437.054C440.036 324.806 442.897 323.763 445.005 321.905C447.114 320.048 448.298 317.528 448.298 314.901V114.405C448.298 111.779 447.113 109.259 445.005 107.402C442.896 105.544 440.036 104.501 437.054 104.501Z" fill="#3F3D56"/>
<path id="Vector_2" d="M433.096 121.827H31.9861V321.57H433.096V121.827Z" fill="#E6E6E6"/>
<path id="Vector_3" d="M416.311 132.462H49.2831V304.925H416.311V132.462Z" fill="white"/>
<path id="Vector_4" d="M232.276 116.279C234.592 116.279 236.47 114.726 236.47 112.811C236.47 110.896 234.592 109.343 232.276 109.343C229.96 109.343 228.082 110.896 228.082 112.811C228.082 114.726 229.96 116.279 232.276 116.279Z" fill="#F9A826"/>
<path id="Vector_5" d="M459.526 317.649H420.394V315.133C420.394 315.001 420.335 314.874 420.23 314.78C420.125 314.687 419.983 314.634 419.834 314.634H406.418C406.269 314.634 406.127 314.687 406.022 314.78C405.917 314.874 405.858 315.001 405.858 315.133V317.649H397.473V315.133C397.473 315.001 397.414 314.874 397.309 314.78C397.205 314.687 397.062 314.634 396.914 314.634H383.497C383.349 314.634 383.207 314.687 383.102 314.78C382.997 314.874 382.938 315.001 382.938 315.133V317.649H374.553V315.133C374.553 315.001 374.494 314.874 374.389 314.78C374.284 314.687 374.142 314.634 373.994 314.634H360.577C360.428 314.634 360.286 314.687 360.181 314.78C360.076 314.874 360.017 315.001 360.017 315.133V317.649H351.632V315.133C351.632 315.001 351.573 314.874 351.469 314.78C351.364 314.687 351.221 314.634 351.073 314.634H337.657C337.509 314.634 337.366 314.687 337.261 314.78C337.157 314.874 337.098 315.001 337.098 315.133V317.649H328.712V315.133C328.712 315.001 328.653 314.874 328.548 314.78C328.443 314.687 328.301 314.634 328.153 314.634H314.736C314.588 314.634 314.446 314.687 314.341 314.78C314.236 314.874 314.177 315.001 314.177 315.133V317.649H305.791V315.133C305.791 315.001 305.732 314.874 305.628 314.78C305.523 314.687 305.38 314.634 305.232 314.634H291.818C291.67 314.634 291.528 314.687 291.423 314.78C291.318 314.874 291.259 315.001 291.259 315.133V317.649H282.871V315.133C282.871 315.001 282.812 314.874 282.707 314.78C282.602 314.687 282.46 314.634 282.312 314.634H177.214C177.065 314.634 176.923 314.687 176.818 314.78C176.713 314.874 176.654 315.001 176.654 315.133V317.649H168.269V315.133C168.269 315.001 168.21 314.874 168.106 314.78C168.001 314.687 167.858 314.634 167.71 314.634H154.293C154.145 314.634 154.003 314.687 153.898 314.78C153.793 314.874 153.734 315.001 153.734 315.133V317.649H145.349V315.133C145.349 315.001 145.29 314.874 145.185 314.78C145.08 314.687 144.938 314.634 144.79 314.634H131.373C131.225 314.634 131.083 314.687 130.978 314.78C130.873 314.874 130.814 315.001 130.814 315.133V317.649H122.428V315.133C122.428 315.001 122.369 314.874 122.265 314.78C122.16 314.687 122.018 314.634 121.869 314.634H108.453C108.305 314.634 108.162 314.687 108.058 314.78C107.953 314.874 107.894 315.001 107.894 315.133V317.649H99.5095V315.133C99.5095 315.001 99.4505 314.874 99.346 314.78C99.241 314.687 99.0985 314.634 98.9505 314.634H85.5325C85.384 314.634 85.2415 314.687 85.137 314.78C85.032 314.874 84.973 315.001 84.973 315.133V317.649H76.588V315.133C76.588 315.001 76.529 314.874 76.424 314.78C76.319 314.687 76.177 314.634 76.0285 314.634H62.612C62.4635 314.634 62.3215 314.687 62.2165 314.78C62.1115 314.874 62.0525 315.001 62.0525 315.133V317.649H53.6675V315.133C53.6675 315.001 53.6085 314.874 53.5035 314.78C53.399 314.687 53.2565 314.634 53.108 314.634H39.6888C39.5405 314.634 39.3983 314.687 39.2934 314.78C39.1885 314.874 39.1296 315.001 39.1296 315.133V317.649H13.4169C9.8585 317.649 6.44585 318.91 3.92971 321.154C1.41356 323.399 0 326.444 0 329.618V335.03C0 338.205 1.41356 341.249 3.92971 343.494C6.44585 345.739 9.8585 347 13.4169 347H459.526C463.084 347 466.497 345.739 469.013 343.494C471.529 341.25 472.942 338.205 472.943 335.031V329.619C472.943 326.444 471.529 323.4 469.013 321.155C466.497 318.91 463.084 317.649 459.526 317.649V317.649Z" fill="#3F3D56"/>
<path id="Vector_6" d="M314.069 144.483H151.528V295.215H314.069V144.483Z" fill="#E6E6E6"/>
<path id="Vector_7" d="M252.202 187.022C264.075 187.022 273.699 178.534 273.699 168.064C273.699 157.595 264.075 149.107 252.202 149.107C240.329 149.107 230.704 157.595 230.704 168.064C230.704 178.534 240.329 187.022 252.202 187.022Z" fill="#A0616A"/>
<path id="Vector_8" d="M202.914 295.376L216.786 218.173C217.524 214.068 219.242 210.149 221.826 206.677C224.41 203.205 227.801 200.259 231.773 198.036C235.745 195.812 240.207 194.362 244.862 193.781C249.517 193.201 254.26 193.503 258.772 194.669C266.663 196.686 273.418 201.231 277.72 207.417C282.023 213.602 283.562 220.983 282.038 228.118L267.529 297.064L202.914 295.376Z" fill="#F9A826"/>
<path id="Vector_9" d="M258.211 309.154C259.294 308.524 260.207 307.693 260.885 306.719C261.564 305.745 261.991 304.651 262.138 303.516C262.285 302.38 262.148 301.23 261.735 300.147C261.323 299.063 260.646 298.072 259.752 297.244L274.223 272.559L257.927 274.091L246.683 297.297C245.209 298.714 244.375 300.557 244.338 302.478C244.301 304.399 245.064 306.265 246.483 307.725C247.902 309.184 249.878 310.136 252.039 310.399C254.2 310.662 256.395 310.22 258.21 309.155L258.211 309.154Z" fill="#A0616A"/>
<path id="Vector_10" opacity="0.3" d="M271.632 80.7721L212.182 98.9686C211.299 99.2389 210.833 100.089 211.139 100.867L211.985 103.017C212.291 103.795 213.255 104.207 214.138 103.937L273.588 85.7403C274.471 85.47 274.938 84.6199 274.631 83.8413L273.786 81.6923C273.48 80.9141 272.515 80.5018 271.632 80.7721Z" fill="#F9A826"/>
<path id="Vector_11" d="M179.979 130.202C178.509 128.076 177.123 124.983 176.453 122.74C176.453 122.74 169.228 112.53 166.569 112.185V112.186C166.55 112.235 165.954 113.833 167.354 117.785C168.777 121.799 168.208 124.893 168.208 124.893C168.208 124.893 170.672 129.684 171.56 132.779L179.979 130.202Z" fill="#F9A826"/>
<path id="Vector_12" d="M261.625 292.869C260.829 292.77 260.087 292.459 259.496 291.979L253.993 287.497C253.399 287.01 252.988 286.375 252.817 285.676C252.646 284.977 252.722 284.249 253.036 283.589L264.034 260.612L262.474 215.21C262.93 212.264 264.694 209.599 267.38 207.801C270.065 206.002 273.451 205.217 276.793 205.619C280.134 206.021 283.158 207.576 285.199 209.943C287.239 212.31 288.13 215.294 287.674 218.24L290.342 246.78C291.153 255.442 288.366 264.069 282.501 271.056L265.35 291.493C265.02 291.886 264.599 292.213 264.116 292.454C263.634 292.694 263.099 292.842 262.547 292.888C262.24 292.913 261.93 292.907 261.625 292.869Z" fill="#F9A826"/>
<path id="hand" d="M128.089 157.952C128.324 159.075 128.834 160.138 129.583 161.067C130.333 161.996 131.303 162.768 132.426 163.329C133.549 163.89 134.798 164.227 136.084 164.315C137.37 164.403 138.662 164.241 139.87 163.839L159.915 185.172L164.639 171.374L144.879 153.232C143.978 151.487 142.386 150.095 140.404 149.318C138.422 148.541 136.188 148.433 134.122 149.014C132.056 149.594 130.302 150.825 129.191 152.471C128.079 154.118 127.688 156.068 128.09 157.952H128.089Z" fill="#A0616A"/>
<path id="arm" d="M143.706 166.474C144.122 165.865 144.74 165.381 145.476 165.089L152.344 162.361C153.088 162.067 153.917 161.981 154.718 162.115C155.52 162.249 156.255 162.596 156.825 163.11L176.654 181.055L224.966 197.544C226.411 198.298 227.673 199.295 228.679 200.478C229.686 201.661 230.418 203.006 230.833 204.438C231.248 205.87 231.338 207.36 231.098 208.822C230.859 210.284 230.293 211.691 229.435 212.961C228.577 214.231 227.443 215.34 226.097 216.225C224.751 217.109 223.221 217.752 221.592 218.116C219.964 218.479 218.27 218.558 216.608 218.346C214.945 218.134 213.346 217.636 211.902 216.881L180.871 207.888C171.453 205.16 163.481 199.517 158.44 192.007L143.694 170.045C143.41 169.623 143.231 169.153 143.168 168.665C143.105 168.178 143.159 167.685 143.327 167.217C143.42 166.957 143.548 166.708 143.708 166.474L143.706 166.474Z" fill="#F9A826"/>
<path id="Vector_13" opacity="0.1" d="M270.03 234.182L269.14 258.914L252.728 283.655L266.431 256.085L270.03 234.182Z" fill="black"/>
<path id="Vector_14" d="M237.634 158.545C239.872 160.864 243.659 161.517 247.153 161.786C254.247 162.33 264.564 161.448 271.498 160.045C271.992 164.244 270.643 168.771 273.468 172.225C274.792 168.044 275.563 163.743 275.763 159.407C275.849 157.55 275.815 155.624 274.952 153.917C274.089 152.21 272.206 150.761 270.039 150.746C271.649 149.676 273.536 148.971 275.532 148.69L268.668 145.671L270.431 144.087L258.003 143.421L261.603 141.419C256.185 140.768 250.705 140.617 245.251 140.969C242.719 141.132 240.071 141.445 238.02 142.729C235.968 144.013 234.782 146.566 236.056 148.452C234.462 148.681 232.96 149.263 231.694 150.142C230.428 151.022 229.44 152.169 228.822 153.477C227.907 155.506 227.991 157.762 228.273 159.925C228.741 163.385 229.66 166.786 231.011 170.063" fill="#2F2E41"/>
<g id="full_poster">
<path id="Vector_15" d="M258.361 6.48626L101.022 54.6448C98.6075 55.3838 97.33 57.7087 98.168 59.8374L134.164 151.289C135.002 153.418 137.639 154.545 140.053 153.806L297.392 105.647C299.806 104.908 301.084 102.583 300.246 100.455L264.25 9.003C263.412 6.87413 260.776 5.74733 258.361 6.48626Z" fill="#F2F2F2"/>
<path id="Vector_16" d="M92.8545 60.7819L258.936 9.94711" stroke="black" stroke-miterlimit="10"/>
<path id="Vector_17" opacity="0.3" d="M244.591 39.3122L202.492 52.1977C201.609 52.468 201.142 53.3181 201.449 54.0963L202.764 57.438C203.071 58.2162 204.035 58.628 204.917 58.3582L247.016 45.4724C247.899 45.2022 248.366 44.3521 248.059 43.5738L246.744 40.2324C246.438 39.454 245.474 39.042 244.591 39.3122Z" fill="#F9A826"/>
<path id="Vector_18" opacity="0.3" d="M259.991 53.7466L200.542 71.9432C199.659 72.2135 199.192 73.0636 199.498 73.8418L200.344 75.9908C200.65 76.7695 201.614 77.1813 202.497 76.911L261.947 58.7144C262.83 58.4441 263.297 57.594 262.991 56.8158L262.145 54.6668C261.838 53.8882 260.874 53.4763 259.991 53.7466Z" fill="#F9A826"/>
<path id="Vector_19" opacity="0.3" d="M265.318 67.2589L205.868 85.4555C204.985 85.7258 204.518 86.5759 204.824 87.3541L205.67 89.5035C205.976 90.2818 206.94 90.694 207.823 90.4237L267.274 72.2272C268.157 71.9569 268.623 71.1068 268.317 70.3281L267.471 68.1791C267.165 67.4009 266.201 66.9886 265.318 67.2589Z" fill="#F9A826"/>
<path id="Vector_20" d="M246.063 36.6355L203.964 49.5209C203.082 49.7912 202.614 50.6413 202.921 51.4195L204.236 54.7612C204.542 55.5394 205.506 55.9517 206.389 55.6814L248.488 42.7958C249.371 42.5256 249.838 41.6755 249.532 40.8972L248.216 37.5557C247.91 36.7773 246.946 36.3653 246.063 36.6355Z" stroke="black" stroke-miterlimit="10"/>
<path id="Vector_21" d="M261.47 51.0694L202.019 69.2664C201.136 69.5362 200.669 70.3863 200.975 71.165L201.821 73.314C202.127 74.0922 203.091 74.5045 203.974 74.2342L263.425 56.0376C264.308 55.7674 264.774 54.9173 264.468 54.1391L263.623 51.9896C263.316 51.2114 262.352 50.7996 261.47 51.0694Z" stroke="black" stroke-miterlimit="10"/>
<path id="Vector_22" d="M266.785 64.5821L207.334 82.7787C206.452 83.049 205.984 83.8991 206.291 84.6773L207.137 86.8263C207.443 87.6049 208.407 88.0168 209.29 87.7465L268.741 69.5499C269.623 69.2801 270.09 68.43 269.784 67.6513L268.938 65.5023C268.631 64.7241 267.667 64.3118 266.785 64.5821Z" stroke="black" stroke-miterlimit="10"/>
<path id="Vector_23" d="M272.105 78.0953L212.654 96.2918C211.772 96.5621 211.304 97.4122 211.611 98.1909L212.457 100.34C212.764 101.118 213.728 101.53 214.61 101.26L274.06 83.0635C274.943 82.7932 275.41 81.9431 275.104 81.1649L274.258 79.0155C273.951 78.2373 272.988 77.8254 272.105 78.0953Z" stroke="black" stroke-miterlimit="10"/>
<path id="Vector_24" opacity="0.3" d="M105.253 56.3547C107.12 55.7832 108.108 53.9856 107.46 52.3392C106.812 50.6929 104.774 49.8216 102.907 50.393C101.04 50.9645 100.052 52.7621 100.7 54.4085C101.348 56.0548 103.386 56.9261 105.253 56.3547Z" fill="#F9A826"/>
<path id="Vector_25" opacity="0.3" d="M114.722 53.4583C116.589 52.8869 117.577 51.0888 116.929 49.4429C116.281 47.7965 114.242 46.9253 112.375 47.4967C110.509 48.0681 109.52 49.8657 110.168 51.5121C110.816 53.158 112.855 54.0297 114.722 53.4583Z" fill="#F9A826"/>
<path id="Vector_26" opacity="0.3" d="M124.18 50.5606C126.047 49.9892 127.035 48.1915 126.387 46.5452C125.739 44.8992 123.7 44.0278 121.833 44.5994C119.966 45.1704 118.978 46.9685 119.626 48.6148C120.274 50.2608 122.313 51.132 124.18 50.5606Z" fill="#F9A826"/>
<path id="Vector_27" d="M106.136 54.7493C108.003 54.1779 108.991 52.3803 108.343 50.7339C107.695 49.0879 105.657 48.2167 103.79 48.7881C101.923 49.3591 100.935 51.1572 101.583 52.8035C102.231 54.4495 104.27 55.3207 106.136 54.7493Z" stroke="#3F3D56" stroke-miterlimit="10"/>
<path id="Vector_28" d="M115.6 51.852C117.466 51.2806 118.455 49.4826 117.807 47.8366C117.159 46.1902 115.12 45.319 113.253 45.8904C111.386 46.4618 110.398 48.2595 111.046 49.9058C111.694 51.5518 113.733 52.4235 115.6 51.852Z" stroke="#3F3D56" stroke-miterlimit="10"/>
<path id="Vector_29" d="M125.063 48.9548C126.93 48.3834 127.918 46.5858 127.27 44.9394C126.622 43.2933 124.583 42.422 122.716 42.9933C120.849 43.5648 119.861 45.3626 120.509 47.0086C121.157 48.655 123.196 49.5262 125.063 48.9548Z" stroke="#3F3D56" stroke-miterlimit="10"/>
<path id="Vector_30" d="M172.021 53.2855L120.088 69.1809C119.384 69.3965 118.736 69.7316 118.179 70.1681C117.623 70.6046 117.169 71.1332 116.845 71.7241C116.52 72.3149 116.33 72.9564 116.287 73.6121C116.243 74.2677 116.346 74.9242 116.59 75.5446L140.639 136.642C140.883 137.263 141.263 137.834 141.758 138.325C142.253 138.816 142.853 139.216 143.523 139.502C144.193 139.789 144.92 139.956 145.664 139.994C146.407 140.033 147.152 139.942 147.855 139.726L166.076 134.149C164.591 132.11 162.467 128.866 162.282 126.215L162.281 126.213L162.282 126.214C162.273 126.09 162.267 125.967 162.267 125.846C162.176 124.117 161.704 122.42 160.879 120.849C160.67 119.354 160.104 117.917 159.218 116.629C157.743 114.485 156.454 112.331 156.454 112.331C156.454 112.331 154.939 109.365 154.471 107.406C154.461 107.363 154.453 107.322 154.443 107.279C154.34 107.29 154.282 107.295 154.282 107.295C154.282 107.295 153.826 103.866 153.31 101.753C153.188 101.254 153.036 100.621 152.877 99.9453C152.602 99.9867 152.323 100.007 152.045 100.008C149.202 99.9973 145.605 93.127 145.605 93.127L144.717 90.8726C144.717 90.8726 142.513 87.6772 144.866 85.2421C147.132 82.8973 148.109 82.146 148.178 82.0939C148.195 82.0732 148.211 82.0547 148.227 82.0327C148.461 81.7117 148.602 81.3448 148.637 80.9643C148.619 80.9066 148.598 80.8497 148.573 80.7941C148.207 80.0009 147.28 79.4612 146.422 79.0053C145.691 78.616 144.959 78.2271 144.228 77.8382C143.987 77.7298 143.774 77.5772 143.605 77.3911C143.526 77.284 143.464 77.1676 143.421 77.0455C143.403 77.0009 143.386 76.9564 143.37 76.9114C143.217 76.5014 143.07 76.0896 142.926 75.6769C142.8 75.3162 142.725 74.8356 143.092 74.6416C143.282 74.5406 143.581 74.5234 143.627 74.3316C143.638 74.2549 143.618 74.1778 143.57 74.1129C143.571 74.1187 143.573 74.124 143.573 74.1297C143.569 74.1235 143.566 74.1174 143.562 74.1112C143.368 73.8506 143.204 73.5737 143.072 73.2845C143.015 73.1531 142.985 73.0142 142.981 72.8735C142.978 72.2122 143.671 71.728 144.324 71.4031C144.978 71.0781 145.723 70.7426 145.967 70.1174C146.02 69.9185 146.085 69.7219 146.162 69.5292C146.299 69.307 146.502 69.1218 146.75 68.9935C147.54 68.5354 148.482 68.3273 149.423 68.4027C149.814 68.4353 150.224 68.5142 150.586 68.3806C150.962 68.2413 151.196 67.9027 151.553 67.7285C152.129 67.4472 152.874 67.6725 153.364 68.0596C153.676 68.3057 153.908 68.6209 154.035 68.9728C154.179 69.3176 154.169 69.6976 154.008 70.0367C153.842 70.3638 153.515 70.654 153.533 71.0124C153.541 71.1584 153.607 71.2977 153.62 71.4432C153.622 71.4613 153.62 71.4794 153.62 71.4974C153.631 71.5036 153.642 71.5089 153.652 71.5151C154.324 71.9101 154.88 72.441 155.272 73.0636C155.664 73.6861 155.882 74.3823 155.907 75.0944C155.931 75.8065 155.763 76.5133 155.415 77.1561C155.067 77.7986 154.55 78.359 153.906 78.7893C153.921 78.8316 153.936 78.8744 153.952 78.9163C154.042 79.1813 154.194 79.426 154.4 79.6345C154.606 79.8431 154.86 80.0097 155.145 80.1244L159.919 80.3563C159.919 80.3563 162.33 79.3175 164.541 82.3506C164.903 82.8563 165.179 83.407 165.358 83.9837C165.522 84.493 165.945 85.3483 167.037 86.2888C168.786 87.7928 170.196 92.0423 168.247 93.1023C166.402 94.1058 165.56 94.1794 165.476 94.1843L165.5 94.2588C165.842 95.0326 168.819 101.697 170.29 102.164C170.697 102.293 170.696 102.464 170.476 102.647L170.477 102.647C170.477 102.647 170.496 102.69 170.532 102.767C170.761 103.251 171.68 105.08 172.87 105.916C174.25 106.883 176.974 114.069 176.974 114.069L179.244 118.101C179.244 118.101 179.894 120.822 180.448 121.162C180.763 121.355 182.594 125.271 184.12 128.626L199.788 123.83C201.209 123.396 202.376 122.481 203.032 121.287C203.688 120.094 203.779 118.72 203.286 117.467L179.237 56.3697C178.993 55.7493 178.613 55.1774 178.118 54.6867C177.623 54.1959 177.024 53.796 176.353 53.5094C175.683 53.2233 174.956 53.0557 174.212 53.0174C173.469 52.979 172.724 53.0698 172.021 53.2855Z" fill="#F9A826"/>
<path id="Vector_31" d="M164.503 49.5752L112.57 65.471C109.612 66.3767 108.046 69.2254 109.073 71.8343L133.121 132.932C134.148 135.541 137.379 136.922 140.338 136.016L192.27 120.121C195.229 119.215 196.795 116.366 195.768 113.757L171.72 52.6594C170.693 50.0505 167.462 48.6695 164.503 49.5752Z" stroke="black" stroke-miterlimit="10"/>
<path id="Vector_32" d="M250.827 1.77894L93.4875 49.9376C91.0735 50.6765 89.7955 53.0015 90.6335 55.1302L126.63 146.582C127.468 148.71 130.104 149.837 132.518 149.098L289.858 100.94C292.272 100.201 293.55 97.876 292.712 95.7473L256.716 4.29567C255.878 2.16679 253.241 1.04001 250.827 1.77894Z" stroke="black" stroke-miterlimit="10"/>
</g>
</g>
</svg>
