<svg width="437" height="347" viewBox="0 0 437 347" fill="none" xmlns="http://www.w3.org/2000/svg">
<g id="Group 167 (1) 1">
<path id="Vector" d="M403.79 104.501H250.217V101.484H180.581V104.501H26.3745C23.6192 104.501 20.9767 105.545 19.0284 107.402C17.0801 109.26 15.9856 111.779 15.9856 114.406V314.901C15.9856 317.528 17.0801 320.048 19.0284 321.905C20.9767 323.763 23.6192 324.807 26.3745 324.807H403.79C406.545 324.807 409.188 323.763 411.136 321.905C413.084 320.048 414.178 317.528 414.178 314.901V114.405C414.178 111.778 413.084 109.259 411.136 107.402C409.187 105.544 406.545 104.501 403.79 104.501Z" fill="#3F3D56"/>
<path id="Vector_2" d="M400.133 121.827H29.5516V321.57H400.133V121.827Z" fill="#E6E6E6"/>
<path id="Vector_3" d="M384.626 132.462H45.5321V304.925H384.626V132.462Z" fill="white"/>
<path id="Vector_4" d="M214.598 116.279C216.738 116.279 218.473 114.726 218.473 112.811C218.473 110.896 216.738 109.343 214.598 109.343C212.457 109.343 210.722 110.896 210.722 112.811C210.722 114.726 212.457 116.279 214.598 116.279Z" fill="#F9A826"/>
<path id="Vector_5" d="M424.551 317.649H388.397V315.133C388.397 315.001 388.343 314.874 388.246 314.78C388.149 314.687 388.018 314.634 387.88 314.634H375.485C375.348 314.634 375.216 314.687 375.12 314.78C375.023 314.874 374.968 315.001 374.968 315.133V317.649H367.221V315.133C367.221 315.001 367.167 314.874 367.07 314.78C366.973 314.687 366.842 314.634 366.704 314.634H354.309C354.172 314.634 354.041 314.687 353.944 314.78C353.847 314.874 353.792 315.001 353.792 315.133V317.649H346.045V315.133C346.045 315.001 345.991 314.874 345.894 314.78C345.797 314.687 345.666 314.634 345.529 314.634H333.133C332.996 314.634 332.865 314.687 332.768 314.78C332.671 314.874 332.616 315.001 332.616 315.133V317.649H324.869V315.133C324.869 315.001 324.815 314.874 324.718 314.78C324.621 314.687 324.49 314.634 324.353 314.634H311.957C311.821 314.634 311.689 314.687 311.592 314.78C311.496 314.874 311.441 315.001 311.441 315.133V317.649H303.693V315.133C303.693 315.001 303.639 314.874 303.542 314.78C303.445 314.687 303.314 314.634 303.177 314.634H290.781C290.645 314.634 290.513 314.687 290.416 314.78C290.32 314.874 290.265 315.001 290.265 315.133V317.649H282.517V315.133C282.517 315.001 282.463 314.874 282.366 314.78C282.269 314.687 282.138 314.634 282.001 314.634H269.608C269.471 314.634 269.339 314.687 269.243 314.78C269.146 314.874 269.091 315.001 269.091 315.133V317.649H261.341V315.133C261.341 315.001 261.287 314.874 261.19 314.78C261.093 314.687 260.962 314.634 260.825 314.634H163.726C163.589 314.634 163.457 314.687 163.36 314.78C163.263 314.874 163.209 315.001 163.209 315.133V317.649H155.462V315.133C155.462 315.001 155.408 314.874 155.311 314.78C155.214 314.687 155.082 314.634 154.946 314.634H142.55C142.413 314.634 142.281 314.687 142.184 314.78C142.087 314.874 142.033 315.001 142.033 315.133V317.649H134.286V315.133C134.286 315.001 134.232 314.874 134.135 314.78C134.038 314.687 133.906 314.634 133.77 314.634H121.374C121.237 314.634 121.106 314.687 121.009 314.78C120.912 314.874 120.858 315.001 120.858 315.133V317.649H113.11V315.133C113.11 315.001 113.056 314.874 112.959 314.78C112.862 314.687 112.731 314.634 112.594 314.634H100.198C100.061 314.634 99.9298 314.687 99.8333 314.78C99.7363 314.874 99.6817 315.001 99.6817 315.133V317.649H91.9358V315.133C91.9358 315.001 91.8813 314.874 91.7848 314.78C91.6878 314.687 91.5561 314.634 91.4194 314.634H79.0226C78.8854 314.634 78.7538 314.687 78.6572 314.78C78.5602 314.874 78.5057 315.001 78.5057 315.133V317.649H70.7589V315.133C70.7589 315.001 70.7044 314.874 70.6074 314.78C70.5104 314.687 70.3792 314.634 70.242 314.634H57.8466C57.7094 314.634 57.5782 314.687 57.4812 314.78C57.3842 314.874 57.3297 315.001 57.3297 315.133V317.649H49.5829V315.133C49.5829 315.001 49.5284 314.874 49.4314 314.78C49.3348 314.687 49.2032 314.634 49.066 314.634H36.6681C36.5311 314.634 36.3997 314.687 36.3028 314.78C36.2059 314.874 36.1515 315.001 36.1515 315.133V317.649H12.3957C9.10817 317.649 5.95526 318.91 3.63062 321.154C1.30597 323.399 0 326.444 0 329.618V335.03C0 338.205 1.30597 341.249 3.63062 343.494C5.95526 345.739 9.10817 347 12.3957 347H424.551C427.839 347 430.992 345.739 433.316 343.494C435.641 341.25 436.946 338.205 436.947 335.031V329.619C436.947 326.444 435.641 323.4 433.316 321.155C430.992 318.91 427.839 317.649 424.551 317.649V317.649Z" fill="#3F3D56"/>
<path id="Vector_6" d="M290.165 144.483H139.995V295.215H290.165V144.483Z" fill="#E6E6E6"/>
<path id="Vector_7" d="M233.007 187.022C243.976 187.022 252.868 178.534 252.868 168.064C252.868 157.595 243.976 149.107 233.007 149.107C222.038 149.107 213.146 157.595 213.146 168.064C213.146 178.534 222.038 187.022 233.007 187.022Z" fill="#A0616A"/>
<path id="Vector_8" d="M187.47 295.376L200.287 218.173C200.968 214.068 202.555 210.149 204.943 206.677C207.33 203.205 210.463 200.259 214.132 198.036C217.802 195.812 221.925 194.362 226.226 193.781C230.527 193.2 234.908 193.503 239.077 194.669C246.367 196.686 252.609 201.231 256.583 207.417C260.558 213.602 261.98 220.983 260.572 228.118L247.167 297.064L187.47 295.376Z" fill="#F9A826"/>
<path id="Vector_9" d="M238.559 309.154C239.559 308.524 240.402 307.693 241.029 306.719C241.656 305.744 242.051 304.651 242.187 303.516C242.323 302.38 242.195 301.23 241.814 300.147C241.434 299.063 240.808 298.072 239.982 297.244L253.352 272.559L238.296 274.091L227.908 297.297C226.546 298.714 225.775 300.557 225.741 302.478C225.707 304.399 226.412 306.265 227.723 307.725C229.034 309.184 230.86 310.135 232.856 310.399C234.852 310.662 236.88 310.22 238.558 309.154L238.559 309.154Z" fill="#A0616A"/>
<path id="Vector_10" d="M166.281 130.202C164.923 128.077 163.642 124.983 163.024 122.74C163.024 122.74 156.349 112.53 153.892 112.185V112.186C153.874 112.235 153.324 113.833 154.617 117.785C155.931 121.799 155.406 124.893 155.406 124.893C155.406 124.893 157.683 129.684 158.503 132.779L166.281 130.202Z" fill="#F9A826"/>
<path id="Vector_11" d="M241.712 292.869C240.977 292.77 240.291 292.459 239.746 291.979L234.662 287.497C234.113 287.011 233.733 286.375 233.575 285.676C233.417 284.977 233.487 284.249 233.777 283.589L243.938 260.612L242.497 215.21C242.918 212.264 244.548 209.599 247.029 207.801C249.51 206.002 252.638 205.217 255.726 205.619C258.813 206.021 261.607 207.576 263.492 209.943C265.377 212.31 266.2 215.294 265.779 218.24L268.244 246.781C268.993 255.442 266.418 264.069 261 271.056L245.154 291.493C244.849 291.886 244.461 292.213 244.015 292.454C243.569 292.694 243.075 292.842 242.565 292.888C242.281 292.913 241.995 292.907 241.712 292.869Z" fill="#F9A826"/>
<path id="hand" d="M118.341 157.952C118.557 159.075 119.028 160.138 119.721 161.067C120.413 161.996 121.31 162.768 122.348 163.329C123.385 163.89 124.539 164.227 125.727 164.315C126.915 164.403 128.108 164.241 129.224 163.839L147.744 185.172L152.108 171.374L133.853 153.232C133.02 151.487 131.549 150.095 129.718 149.318C127.887 148.541 125.823 148.433 123.914 149.014C122.006 149.594 120.385 150.825 119.358 152.471C118.331 154.118 117.97 156.068 118.341 157.952H118.341Z" fill="#A0616A"/>
<path id="arm" d="M132.769 166.474C133.153 165.865 133.723 165.381 134.403 165.089L140.749 162.361C141.436 162.067 142.202 161.981 142.942 162.115C143.683 162.249 144.362 162.596 144.889 163.11L163.208 181.055L207.844 197.544C209.178 198.298 210.344 199.295 211.274 200.478C212.205 201.661 212.88 203.006 213.264 204.438C213.648 205.87 213.731 207.36 213.509 208.822C213.288 210.284 212.765 211.691 211.973 212.961C211.18 214.231 210.132 215.34 208.889 216.225C207.645 217.109 206.231 217.752 204.727 218.116C203.223 218.479 201.657 218.558 200.122 218.346C198.585 218.134 197.108 217.636 195.774 216.881L167.105 207.888C158.403 205.16 151.038 199.517 146.381 192.007L132.757 170.045C132.495 169.623 132.33 169.153 132.271 168.665C132.213 168.178 132.263 167.685 132.418 167.217C132.504 166.957 132.623 166.708 132.77 166.474L132.769 166.474Z" fill="#F9A826"/>
<path id="Vector_12" opacity="0.1" d="M249.478 234.182L248.656 258.913L233.493 283.655L246.153 256.085L249.478 234.182Z" fill="black"/>
<path id="Vector_13" d="M219.548 158.545C221.616 160.864 225.114 161.517 228.342 161.786C234.897 162.33 244.429 161.448 250.834 160.046C251.291 164.244 250.045 168.771 252.655 172.225C253.878 168.044 254.59 163.743 254.775 159.407C254.854 157.55 254.823 155.624 254.026 153.917C253.228 152.21 251.489 150.761 249.486 150.746C250.974 149.677 252.717 148.971 254.561 148.69L248.22 145.671L249.849 144.087L238.367 143.421L241.692 141.419C236.687 140.768 231.624 140.617 226.585 140.969C224.246 141.132 221.8 141.445 219.904 142.729C218.009 144.013 216.913 146.566 218.09 148.452C216.617 148.681 215.23 149.263 214.06 150.142C212.891 151.022 211.977 152.169 211.407 153.477C210.562 155.506 210.639 157.762 210.9 159.925C211.332 163.385 212.181 166.786 213.429 170.063" fill="#2F2E41"/>
<g id="Group 168">
<path id="poster" d="M232.238 0.226707L86.8739 48.3852C84.6436 49.1242 83.4634 51.4492 84.2376 53.5779L117.494 145.029C118.268 147.158 120.704 148.285 122.934 147.546L268.299 99.3876C270.529 98.6486 271.71 96.3237 270.935 94.195L237.679 2.74345C236.904 0.614579 234.469 -0.512222 232.238 0.226707Z" fill="#F2F2F2"/>
<path id="Vector_14" d="M86.7112 60.7819L240.153 9.94714" stroke="black" stroke-miterlimit="10"/>
<path id="Vector_15" opacity="0.3" d="M226.899 39.3122L188.005 52.1977C187.189 52.468 186.757 53.3181 187.041 54.0963L188.256 57.438C188.539 58.2162 189.429 58.628 190.245 58.3582L229.139 45.4724C229.955 45.2022 230.386 44.3521 230.103 43.5738L228.888 40.2324C228.605 39.454 227.714 39.042 226.899 39.3122Z" fill="#F9A826"/>
<path id="Vector_16" opacity="0.3" d="M241.127 53.7467L186.202 71.9432C185.386 72.2135 184.955 73.0636 185.238 73.8418L186.02 75.9908C186.302 76.7695 187.193 77.1813 188.009 76.911L242.934 58.7144C243.75 58.4442 244.181 57.5941 243.898 56.8159L243.117 54.6668C242.834 53.8882 241.943 53.4764 241.127 53.7467Z" fill="#F9A826"/>
<path id="Vector_17" opacity="0.3" d="M246.049 67.2589L191.123 85.4555C190.307 85.7258 189.876 86.5759 190.159 87.3541L190.94 89.5035C191.224 90.2818 192.114 90.694 192.93 90.4237L247.855 72.2272C248.671 71.9569 249.102 71.1068 248.819 70.3282L248.038 68.1791C247.755 67.4009 246.864 66.9887 246.049 67.2589Z" fill="#F9A826"/>
<path id="Vector_18" opacity="0.3" d="M250.959 80.7721L196.033 98.9686C195.217 99.2389 194.786 100.089 195.069 100.867L195.851 103.017C196.134 103.795 197.024 104.207 197.84 103.937L252.765 85.7403C253.581 85.47 254.012 84.6199 253.729 83.8413L252.948 81.6923C252.665 80.914 251.774 80.5018 250.959 80.7721Z" fill="#F9A826"/>
<path id="Vector_19" d="M228.259 36.6355L189.365 49.5209C188.549 49.7912 188.117 50.6413 188.401 51.4195L189.615 54.7612C189.899 55.5394 190.789 55.9517 191.605 55.6814L230.499 42.7958C231.315 42.5256 231.746 41.6755 231.464 40.8972L230.248 37.5557C229.965 36.7773 229.074 36.3653 228.259 36.6355Z" stroke="black" stroke-miterlimit="10"/>
<path id="Vector_20" d="M242.493 51.0694L187.567 69.2664C186.751 69.5363 186.32 70.3864 186.603 71.165L187.385 73.314C187.667 74.0922 188.558 74.5045 189.374 74.2342L244.299 56.0377C245.115 55.7674 245.546 54.9173 245.263 54.1391L244.482 51.9896C244.199 51.2114 243.308 50.7996 242.493 51.0694Z" stroke="black" stroke-miterlimit="10"/>
<path id="Vector_21" d="M245.977 68.0829L191.051 86.2795C190.236 86.5497 189.804 87.3998 190.087 88.178L190.868 90.3271C191.152 91.1057 192.042 91.5175 192.858 91.2473L247.783 73.0507C248.599 72.7809 249.03 71.9308 248.747 71.1521L247.966 69.0031C247.683 68.2249 246.792 67.8126 245.977 68.0829Z" stroke="black" stroke-miterlimit="10"/>
<path id="Vector_22" d="M252.319 78.0953L197.393 96.2919C196.578 96.5622 196.146 97.4122 196.429 98.1909L197.211 100.34C197.494 101.118 198.385 101.53 199.2 101.26L254.126 83.0635C254.941 82.7933 255.373 81.9432 255.09 81.165L254.308 79.0155C254.025 78.2373 253.134 77.8255 252.319 78.0953Z" stroke="black" stroke-miterlimit="10"/>
<path id="Vector_23" opacity="0.3" d="M98.1661 56.3547C99.891 55.7832 100.804 53.9856 100.205 52.3392C99.6064 50.6929 97.7231 49.8216 95.9982 50.393C94.2733 50.9645 93.3605 52.7621 93.9592 54.4085C94.5579 56.0548 96.4412 56.9261 98.1661 56.3547Z" fill="#F9A826"/>
<path id="Vector_24" opacity="0.3" d="M106.914 53.4583C108.639 52.8869 109.552 51.0888 108.953 49.4429C108.354 47.7965 106.471 46.9253 104.746 47.4967C103.022 48.0681 102.108 49.8657 102.707 51.5121C103.306 53.158 105.189 54.0297 106.914 53.4583Z" fill="#F9A826"/>
<path id="Vector_25" opacity="0.3" d="M115.653 50.5606C117.377 49.9892 118.29 48.1916 117.692 46.5452C117.093 44.8993 115.21 44.0278 113.485 44.5994C111.76 45.1704 110.847 46.9685 111.446 48.6148C112.044 50.2608 113.928 51.132 115.653 50.5606Z" fill="#F9A826"/>
<path id="Vector_26" d="M98.9823 54.7493C100.707 54.1779 101.62 52.3803 101.021 50.7339C100.423 49.0879 98.5393 48.2167 96.8144 48.7881C95.09 49.3591 94.1767 51.1572 94.7754 52.8035C95.3741 54.4495 97.2579 55.3207 98.9823 54.7493Z" stroke="#3F3D56" stroke-miterlimit="10"/>
<path id="Vector_27" d="M107.726 51.852C109.45 51.2806 110.363 49.4826 109.765 47.8366C109.166 46.1902 107.282 45.319 105.558 45.8904C103.833 46.4618 102.92 48.2595 103.519 49.9058C104.117 51.5518 106.001 52.4235 107.726 51.852Z" stroke="#3F3D56" stroke-miterlimit="10"/>
<path id="Vector_28" d="M116.468 48.9548C118.193 48.3834 119.106 46.5858 118.507 44.9394C117.909 43.2933 116.025 42.422 114.3 42.9934C112.576 43.5648 111.663 45.3627 112.261 47.0086C112.86 48.655 114.743 49.5262 116.468 48.9548Z" stroke="#3F3D56" stroke-miterlimit="10"/>
<path id="Vector_29" d="M159.852 53.2854L111.872 69.1808C111.222 69.3965 110.622 69.7315 110.108 70.1681C109.594 70.6046 109.175 71.1332 108.875 71.724C108.575 72.3149 108.4 72.9564 108.36 73.612C108.319 74.2677 108.415 74.9242 108.64 75.5446L130.858 136.642C131.084 137.263 131.435 137.834 131.893 138.325C132.35 138.816 132.904 139.216 133.523 139.502C134.142 139.789 134.814 139.956 135.501 139.994C136.188 140.033 136.876 139.942 137.526 139.726L154.359 134.149C152.988 132.11 151.025 128.866 150.854 126.215L150.853 126.213L150.854 126.214C150.846 126.09 150.841 125.967 150.841 125.846C150.757 124.117 150.321 122.42 149.558 120.849C149.365 119.354 148.842 117.916 148.023 116.629C146.661 114.485 145.47 112.331 145.47 112.331C145.47 112.331 144.07 109.365 143.638 107.406C143.628 107.363 143.621 107.322 143.612 107.279C143.517 107.29 143.463 107.295 143.463 107.295C143.463 107.295 143.042 103.866 142.565 101.753C142.452 101.254 142.312 100.621 142.165 99.9452C141.911 99.9867 141.654 100.007 141.396 100.008C138.77 99.9973 135.446 93.1269 135.446 93.1269L134.626 90.8725C134.626 90.8725 132.59 87.6772 134.764 85.242C136.857 82.8973 137.76 82.1459 137.824 82.0939C137.839 82.0732 137.855 82.0547 137.869 82.0326C138.086 81.7116 138.216 81.3448 138.248 80.9643C138.231 80.9065 138.212 80.8497 138.189 80.7941C137.851 80.0009 136.994 79.4612 136.202 79.0053C135.526 78.616 134.85 78.2271 134.174 77.8382C133.952 77.7297 133.755 77.5772 133.599 77.3911C133.526 77.284 133.469 77.1676 133.429 77.0454C133.412 77.0009 133.397 76.9564 133.382 76.9114C133.241 76.5014 133.104 76.0895 132.971 75.6768C132.855 75.3162 132.786 74.8356 133.125 74.6416C133.301 74.5406 133.576 74.5234 133.619 74.3316C133.629 74.2549 133.611 74.1777 133.567 74.1129C133.568 74.1187 133.57 74.1239 133.57 74.1297C133.566 74.1235 133.563 74.1173 133.559 74.1112C133.38 73.8506 133.228 73.5737 133.106 73.2844C133.054 73.153 133.026 73.0142 133.023 72.8735C133.019 72.2121 133.66 71.728 134.263 71.403C134.867 71.0781 135.555 70.7426 135.781 70.1173C135.83 69.9185 135.89 69.7218 135.961 69.5292C136.088 69.3069 136.276 69.1218 136.505 68.9935C137.234 68.5353 138.104 68.3272 138.974 68.4026C139.335 68.4353 139.714 68.5142 140.048 68.3806C140.396 68.2413 140.612 67.9026 140.942 67.7285C141.474 67.4472 142.162 67.6725 142.615 68.0596C142.904 68.3056 143.117 68.6209 143.235 68.9727C143.368 69.3175 143.359 69.6976 143.21 70.0367C143.057 70.3638 142.754 70.6539 142.771 71.0124C142.778 71.1583 142.84 71.2977 142.852 71.4432C142.854 71.4613 142.852 71.4793 142.852 71.4974C142.862 71.5036 142.872 71.5089 142.881 71.515C143.502 71.9101 144.016 72.441 144.378 73.0635C144.74 73.6861 144.941 74.3823 144.964 75.0944C144.987 75.8065 144.831 76.5133 144.51 77.1561C144.188 77.7985 143.711 78.3589 143.116 78.7893C143.13 78.8316 143.143 78.8744 143.159 78.9162C143.241 79.1812 143.382 79.4259 143.572 79.6345C143.762 79.843 143.997 80.0097 144.26 80.1244L148.671 80.3563C148.671 80.3563 150.898 79.3175 152.942 82.3505C153.276 82.8563 153.531 83.407 153.696 83.9837C153.848 84.4929 154.238 85.3483 155.248 86.2888C156.863 87.7927 158.166 92.0423 156.366 93.1022C154.661 94.1058 153.883 94.1794 153.805 94.1842L153.828 94.2588C154.143 95.0326 156.894 101.697 158.253 102.163C158.629 102.293 158.628 102.464 158.425 102.647L158.425 102.647C158.425 102.647 158.443 102.69 158.476 102.767C158.688 103.251 159.537 105.08 160.637 105.916C161.912 106.883 164.428 114.069 164.428 114.069L166.525 118.101C166.525 118.101 167.126 120.822 167.638 121.162C167.929 121.355 169.62 125.271 171.03 128.626L185.506 123.83C186.819 123.396 187.897 122.481 188.503 121.287C189.109 120.094 189.193 118.72 188.737 117.467L166.519 56.3696C166.294 55.7493 165.942 55.1774 165.485 54.6866C165.028 54.1959 164.474 53.796 163.855 53.5094C163.236 53.2233 162.564 53.0557 161.877 53.0173C161.19 52.979 160.502 53.0698 159.852 53.2854Z" fill="#F9A826"/>
<path id="Vector_30" d="M152.907 49.5751L104.926 65.471C102.193 66.3766 100.746 69.2254 101.695 71.8343L123.913 132.932C124.862 135.541 127.847 136.922 130.58 136.016L178.561 120.121C181.294 119.215 182.741 116.366 181.792 113.757L159.574 52.6593C158.625 50.0504 155.64 48.6695 152.907 49.5751Z" stroke="black" stroke-miterlimit="10"/>
<path id="poster_2" d="M232.661 1.77896L87.2961 49.9376C85.0658 50.6766 83.8851 53.0015 84.6593 55.1303L117.916 146.582C118.69 148.71 121.126 149.837 123.356 149.098L268.721 100.94C270.951 100.201 272.132 97.8761 271.358 95.7473L238.101 4.29568C237.327 2.1668 234.891 1.04003 232.661 1.77896Z" stroke="black" stroke-miterlimit="10"/>
</g>
</g>
</svg>
