<svg width="473" height="347" viewBox="0 0 473 347" fill="none" xmlns="http://www.w3.org/2000/svg">
<g id="Group 167 (1) 1">
<path id="Vector" d="M437.054 104.501H270.829V101.484H195.457V104.501H28.5472C25.5649 104.501 22.7048 105.545 20.596 107.402C18.4872 109.26 17.3025 111.779 17.3025 114.406V314.901C17.3025 317.528 18.4872 320.048 20.596 321.905C22.7048 323.763 25.5649 324.807 28.5472 324.807H437.054C440.036 324.807 442.896 323.763 445.005 321.905C447.114 320.048 448.298 317.528 448.298 314.901V114.405C448.298 111.778 447.113 109.259 445.005 107.402C442.896 105.544 440.036 104.501 437.054 104.501Z" fill="#3F3D56"/>
<path id="Vector_2" d="M433.096 121.827H31.9861V321.57H433.096V121.827Z" fill="#E6E6E6"/>
<path id="Vector_3" d="M416.311 132.462H49.2831V304.925H416.311V132.462Z" fill="white"/>
<path id="Vector_4" d="M232.276 116.279C234.593 116.279 236.471 114.726 236.471 112.811C236.471 110.896 234.593 109.343 232.276 109.343C229.96 109.343 228.082 110.896 228.082 112.811C228.082 114.726 229.96 116.279 232.276 116.279Z" fill="#F9A826"/>
<path id="Vector_5" d="M459.526 317.649H420.393V315.133C420.393 315.001 420.334 314.874 420.229 314.78C420.124 314.687 419.983 314.634 419.834 314.634H406.418C406.269 314.634 406.127 314.687 406.022 314.78C405.917 314.874 405.858 315.001 405.858 315.133V317.649H397.473V315.133C397.473 315.001 397.414 314.874 397.309 314.78C397.204 314.687 397.062 314.634 396.914 314.634H383.497C383.349 314.634 383.207 314.687 383.102 314.78C382.997 314.874 382.938 315.001 382.938 315.133V317.649H374.552V315.133C374.552 315.001 374.493 314.874 374.388 314.78C374.284 314.687 374.141 314.634 373.993 314.634H360.577C360.428 314.634 360.286 314.687 360.181 314.78C360.076 314.874 360.017 315.001 360.017 315.133V317.649H351.632V315.133C351.632 315.001 351.573 314.874 351.469 314.78C351.364 314.687 351.221 314.634 351.073 314.634H337.656C337.508 314.634 337.366 314.687 337.261 314.78C337.156 314.874 337.098 315.001 337.098 315.133V317.649H328.711V315.133C328.711 315.001 328.653 314.874 328.548 314.78C328.443 314.687 328.3 314.634 328.152 314.634H314.736C314.588 314.634 314.446 314.687 314.341 314.78C314.236 314.874 314.177 315.001 314.177 315.133V317.649H305.791V315.133C305.791 315.001 305.732 314.874 305.628 314.78C305.523 314.687 305.38 314.634 305.232 314.634H291.818C291.67 314.634 291.528 314.687 291.423 314.78C291.318 314.874 291.259 315.001 291.259 315.133V317.649H282.871V315.133C282.871 315.001 282.812 314.874 282.707 314.78C282.602 314.687 282.459 314.634 282.311 314.634H177.214C177.065 314.634 176.923 314.687 176.818 314.78C176.713 314.874 176.654 315.001 176.654 315.133V317.649H168.269V315.133C168.269 315.001 168.21 314.874 168.105 314.78C168 314.687 167.858 314.634 167.71 314.634H154.293C154.144 314.634 154.003 314.687 153.898 314.78C153.793 314.874 153.734 315.001 153.734 315.133V317.649H145.348V315.133C145.348 315.001 145.289 314.874 145.185 314.78C145.08 314.687 144.938 314.634 144.79 314.634H131.373C131.225 314.634 131.082 314.687 130.977 314.78C130.873 314.874 130.814 315.001 130.814 315.133V317.649H122.428V315.133C122.428 315.001 122.369 314.874 122.265 314.78C122.16 314.687 122.018 314.634 121.869 314.634H108.452C108.304 314.634 108.162 314.687 108.058 314.78C107.953 314.874 107.894 315.001 107.894 315.133V317.649H99.5095V315.133C99.5095 315.001 99.4505 314.874 99.346 314.78C99.241 314.687 99.0985 314.634 98.9505 314.634H85.5325C85.384 314.634 85.2415 314.687 85.137 314.78C85.032 314.874 84.973 315.001 84.973 315.133V317.649H76.588V315.133C76.588 315.001 76.529 314.874 76.424 314.78C76.319 314.687 76.177 314.634 76.0285 314.634H62.612C62.4635 314.634 62.3215 314.687 62.2165 314.78C62.1115 314.874 62.0525 315.001 62.0525 315.133V317.649H53.6675V315.133C53.6675 315.001 53.6085 314.874 53.5035 314.78C53.399 314.687 53.2565 314.634 53.108 314.634H39.6888C39.5405 314.634 39.3982 314.687 39.2934 314.78C39.1885 314.874 39.1296 315.001 39.1296 315.133V317.649H13.4169C9.8585 317.649 6.44585 318.91 3.92971 321.154C1.41356 323.399 0 326.444 0 329.618V335.03C0 338.205 1.41356 341.249 3.92971 343.494C6.44585 345.739 9.8585 347 13.4169 347H459.526C463.084 347 466.497 345.739 469.013 343.494C471.529 341.25 472.942 338.205 472.943 335.031V329.619C472.943 326.444 471.529 323.4 469.013 321.155C466.497 318.91 463.084 317.649 459.526 317.649V317.649Z" fill="#3F3D56"/>
<path id="Vector_6" d="M314.069 144.483H151.528V295.215H314.069V144.483Z" fill="#E6E6E6"/>
<path id="Vector_7" d="M252.202 187.022C264.075 187.022 273.699 178.534 273.699 168.064C273.699 157.595 264.075 149.107 252.202 149.107C240.329 149.107 230.704 157.595 230.704 168.064C230.704 178.534 240.329 187.022 252.202 187.022Z" fill="#A0616A"/>
<path id="Vector_8" d="M202.914 295.376L216.787 218.173C217.524 214.068 219.242 210.149 221.826 206.677C224.41 203.205 227.801 200.259 231.773 198.036C235.745 195.812 240.207 194.362 244.862 193.781C249.518 193.2 254.26 193.503 258.772 194.669C266.663 196.686 273.419 201.231 277.721 207.417C282.023 213.602 283.562 220.983 282.038 228.118L267.529 297.064L202.914 295.376Z" fill="#F9A826"/>
<path id="Vector_9" d="M258.211 309.154C259.293 308.524 260.207 307.693 260.885 306.719C261.564 305.744 261.991 304.651 262.138 303.516C262.285 302.38 262.147 301.23 261.735 300.147C261.323 299.063 260.646 298.072 259.752 297.244L274.223 272.559L257.927 274.091L246.683 297.297C245.209 298.714 244.375 300.557 244.338 302.478C244.301 304.399 245.064 306.265 246.483 307.725C247.902 309.184 249.878 310.135 252.039 310.399C254.2 310.662 256.394 310.22 258.21 309.154L258.211 309.154Z" fill="#A0616A"/>
<path id="Vector_10" d="M179.979 130.202C178.509 128.077 177.123 124.983 176.453 122.74C176.453 122.74 169.229 112.53 166.57 112.185V112.186C166.55 112.235 165.955 113.833 167.355 117.785C168.777 121.799 168.208 124.893 168.208 124.893C168.208 124.893 170.672 129.684 171.56 132.779L179.979 130.202Z" fill="#F9A826"/>
<path id="Vector_11" d="M261.624 292.869C260.829 292.77 260.086 292.459 259.496 291.979L253.993 287.497C253.399 287.01 252.988 286.375 252.817 285.676C252.646 284.977 252.722 284.249 253.036 283.589L264.034 260.612L262.473 215.21C262.929 212.264 264.694 209.599 267.379 207.801C270.064 206.002 273.45 205.217 276.792 205.619C280.134 206.021 283.158 207.576 285.198 209.943C287.239 212.31 288.129 215.294 287.673 218.24L290.341 246.78C291.152 255.442 288.366 264.069 282.501 271.056L265.349 291.493C265.019 291.886 264.599 292.213 264.116 292.454C263.634 292.694 263.099 292.842 262.547 292.888C262.24 292.913 261.93 292.907 261.624 292.869Z" fill="#F9A826"/>
<path id="hand" d="M128.089 157.952C128.324 159.075 128.834 160.138 129.583 161.067C130.333 161.996 131.303 162.768 132.426 163.329C133.549 163.89 134.798 164.227 136.084 164.315C137.37 164.403 138.662 164.241 139.87 163.839L159.915 185.172L164.639 171.374L144.88 153.232C143.978 151.487 142.386 150.095 140.404 149.318C138.422 148.541 136.188 148.433 134.122 149.014C132.056 149.594 130.302 150.825 129.191 152.471C128.079 154.118 127.688 156.068 128.09 157.952H128.089Z" fill="#A0616A"/>
<path id="arm" d="M143.706 166.474C144.122 165.865 144.739 165.381 145.475 165.089L152.343 162.361C153.087 162.067 153.916 161.981 154.718 162.115C155.519 162.249 156.255 162.596 156.824 163.11L176.653 181.055L224.966 197.544C226.41 198.298 227.672 199.295 228.679 200.478C229.686 201.661 230.417 203.006 230.833 204.438C231.248 205.87 231.338 207.36 231.098 208.822C230.858 210.284 230.293 211.691 229.435 212.961C228.577 214.231 227.442 215.34 226.097 216.225C224.751 217.109 223.22 217.752 221.592 218.116C219.964 218.48 218.27 218.558 216.607 218.346C214.944 218.134 213.345 217.636 211.902 216.881L180.871 207.888C171.452 205.16 163.481 199.517 158.44 192.007L143.693 170.045C143.41 169.623 143.231 169.153 143.168 168.665C143.105 168.178 143.159 167.685 143.327 167.217C143.42 166.957 143.548 166.708 143.708 166.474L143.706 166.474Z" fill="#F9A826"/>
<path id="Vector_12" opacity="0.1" d="M270.03 234.182L269.14 258.914L252.728 283.655L266.431 256.085L270.03 234.182Z" fill="black"/>
<path id="Vector_13" d="M237.635 158.545C239.873 160.864 243.659 161.517 247.153 161.786C254.248 162.33 264.565 161.448 271.498 160.046C271.993 164.244 270.644 168.771 273.469 172.225C274.793 168.044 275.563 163.743 275.764 159.407C275.849 157.55 275.816 155.624 274.953 153.917C274.089 152.21 272.207 150.761 270.039 150.746C271.65 149.677 273.536 148.971 275.532 148.69L268.668 145.671L270.431 144.087L258.004 143.421L261.603 141.419C256.186 140.768 250.705 140.617 245.252 140.969C242.72 141.132 240.072 141.445 238.02 142.729C235.969 144.013 234.783 146.566 236.057 148.452C234.462 148.681 232.961 149.263 231.695 150.142C230.429 151.022 229.44 152.169 228.823 153.477C227.908 155.506 227.992 157.762 228.274 159.925C228.742 163.385 229.661 166.786 231.012 170.063" fill="#2F2E41"/>
<g id="full_poster">
<path id="poster" d="M251.37 0.226707L94.0306 48.3852C91.6166 49.1242 90.3391 51.4492 91.1771 53.5779L127.173 145.029C128.011 147.158 130.648 148.285 133.062 147.546L290.401 99.3876C292.815 98.6486 294.093 96.3237 293.255 94.195L257.259 2.74345C256.421 0.614579 253.785 -0.512222 251.37 0.226707Z" fill="#F2F2F2"/>
<path id="Vector_14" d="M93.8545 60.7819L259.936 9.94714" stroke="black" stroke-miterlimit="10"/>
<path id="Vector_15" opacity="0.3" d="M245.591 39.3122L203.493 52.1977C202.61 52.468 202.143 53.3181 202.449 54.0963L203.764 57.438C204.071 58.2162 205.035 58.628 205.917 58.3582L248.016 45.4724C248.899 45.2022 249.366 44.3521 249.059 43.5738L247.744 40.2324C247.438 39.454 246.474 39.042 245.591 39.3122Z" fill="#F9A826"/>
<path id="Vector_16" opacity="0.3" d="M260.992 53.7467L201.542 71.9432C200.659 72.2135 200.192 73.0636 200.498 73.8418L201.344 75.9908C201.65 76.7695 202.614 77.1813 203.497 76.911L262.947 58.7144C263.83 58.4442 264.297 57.5941 263.991 56.8159L263.145 54.6668C262.839 53.8882 261.875 53.4764 260.992 53.7467Z" fill="#F9A826"/>
<path id="Vector_17" opacity="0.3" d="M266.318 67.2589L206.868 85.4555C205.985 85.7258 205.518 86.5759 205.824 87.3541L206.67 89.5035C206.976 90.2818 207.94 90.694 208.823 90.4237L268.273 72.2272C269.156 71.9569 269.623 71.1068 269.317 70.3282L268.471 68.1791C268.165 67.4009 267.201 66.9887 266.318 67.2589Z" fill="#F9A826"/>
<path id="Vector_18" opacity="0.3" d="M271.632 80.7721L212.182 98.9686C211.299 99.2389 210.833 100.089 211.139 100.867L211.985 103.017C212.291 103.795 213.255 104.207 214.138 103.937L273.588 85.7403C274.471 85.47 274.938 84.6199 274.631 83.8413L273.786 81.6923C273.479 80.914 272.515 80.5018 271.632 80.7721Z" fill="#F9A826"/>
<path id="Vector_19" d="M247.063 36.6355L204.964 49.5209C204.082 49.7912 203.614 50.6413 203.921 51.4195L205.236 54.7612C205.542 55.5394 206.506 55.9517 207.389 55.6814L249.487 42.7958C250.37 42.5256 250.837 41.6755 250.531 40.8972L249.216 37.5557C248.909 36.7773 247.945 36.3653 247.063 36.6355Z" stroke="black" stroke-miterlimit="10"/>
<path id="Vector_20" d="M262.469 51.0694L203.019 69.2664C202.136 69.5363 201.669 70.3864 201.975 71.165L202.821 73.314C203.127 74.0922 204.091 74.5045 204.974 74.2342L264.424 56.0377C265.307 55.7674 265.774 54.9173 265.468 54.1391L264.622 51.9896C264.316 51.2114 263.352 50.7996 262.469 51.0694Z" stroke="black" stroke-miterlimit="10"/>
<path id="Vector_21" d="M266.24 68.0829L206.79 86.2795C205.907 86.5498 205.44 87.3998 205.746 88.1781L206.592 90.3271C206.899 91.1057 207.862 91.5175 208.745 91.2473L268.196 73.0507C269.078 72.7809 269.545 71.9308 269.239 71.1521L268.393 69.0031C268.087 68.2249 267.123 67.8126 266.24 68.0829Z" stroke="black" stroke-miterlimit="10"/>
<path id="Vector_22" d="M273.105 78.0953L213.655 96.2919C212.772 96.5622 212.305 97.4122 212.611 98.1909L213.457 100.34C213.764 101.118 214.728 101.53 215.61 101.26L275.061 83.0635C275.943 82.7933 276.41 81.9432 276.104 81.165L275.258 79.0155C274.952 78.2373 273.988 77.8255 273.105 78.0953Z" stroke="black" stroke-miterlimit="10"/>
<path id="Vector_23" opacity="0.3" d="M106.253 56.3547C108.12 55.7832 109.108 53.9856 108.46 52.3392C107.812 50.6929 105.774 49.8216 103.907 50.393C102.04 50.9645 101.052 52.7621 101.7 54.4085C102.348 56.0548 104.386 56.9261 106.253 56.3547Z" fill="#F9A826"/>
<path id="Vector_24" opacity="0.3" d="M115.721 53.4583C117.588 52.8869 118.576 51.0888 117.928 49.4429C117.28 47.7965 115.242 46.9253 113.375 47.4967C111.508 48.0681 110.52 49.8657 111.168 51.5121C111.816 53.158 113.855 54.0297 115.721 53.4583Z" fill="#F9A826"/>
<path id="Vector_25" opacity="0.3" d="M125.18 50.5606C127.047 49.9892 128.035 48.1916 127.387 46.5452C126.739 44.8993 124.701 44.0278 122.834 44.5994C120.967 45.1704 119.979 46.9685 120.627 48.6148C121.275 50.2608 123.314 51.132 125.18 50.5606Z" fill="#F9A826"/>
<path id="Vector_26" d="M107.137 54.7493C109.004 54.1779 109.992 52.3803 109.344 50.7339C108.696 49.0879 106.657 48.2167 104.79 48.7881C102.924 49.3591 101.935 51.1572 102.583 52.8035C103.231 54.4495 105.27 55.3207 107.137 54.7493Z" stroke="#3F3D56" stroke-miterlimit="10"/>
<path id="Vector_27" d="M116.6 51.852C118.467 51.2806 119.455 49.4826 118.807 47.8366C118.159 46.1902 116.12 45.319 114.254 45.8904C112.387 46.4618 111.399 48.2595 112.047 49.9058C112.695 51.5518 114.733 52.4235 116.6 51.852Z" stroke="#3F3D56" stroke-miterlimit="10"/>
<path id="Vector_28" d="M126.063 48.9548C127.93 48.3834 128.918 46.5858 128.27 44.9394C127.622 43.2933 125.584 42.422 123.717 42.9934C121.85 43.5648 120.862 45.3627 121.51 47.0086C122.158 48.655 124.196 49.5262 126.063 48.9548Z" stroke="#3F3D56" stroke-miterlimit="10"/>
<path id="Vector_29" d="M173.02 53.2854L121.088 69.1808C120.384 69.3964 119.736 69.7315 119.179 70.168C118.623 70.6046 118.169 71.1332 117.845 71.724C117.52 72.3149 117.33 72.9564 117.287 73.612C117.243 74.2677 117.346 74.9242 117.59 75.5446L141.639 136.642C141.883 137.262 142.263 137.834 142.758 138.325C143.253 138.816 143.853 139.216 144.523 139.502C145.193 139.788 145.92 139.956 146.664 139.994C147.407 140.033 148.151 139.941 148.855 139.726L167.076 134.149C165.591 132.11 163.466 128.866 163.281 126.214L163.281 126.213L163.281 126.214C163.272 126.09 163.267 125.967 163.267 125.846C163.176 124.117 162.704 122.42 161.878 120.849C161.669 119.354 161.104 117.916 160.218 116.629C158.743 114.485 157.454 112.331 157.454 112.331C157.454 112.331 155.938 109.365 155.471 107.406C155.46 107.363 155.452 107.322 155.443 107.279C155.34 107.29 155.282 107.295 155.282 107.295C155.282 107.295 154.825 103.866 154.309 101.753C154.187 101.254 154.036 100.621 153.877 99.9452C153.602 99.9867 153.323 100.007 153.044 100.008C150.202 99.9973 146.605 93.1269 146.605 93.1269L145.717 90.8725C145.717 90.8725 143.513 87.6772 145.866 85.242C148.132 82.8973 149.109 82.1459 149.178 82.0939C149.194 82.0732 149.211 82.0547 149.227 82.0326C149.461 81.7116 149.602 81.3448 149.637 80.9643C149.618 80.9065 149.598 80.8497 149.573 80.7941C149.207 80.0009 148.28 79.4612 147.422 79.0053C146.691 78.616 145.959 78.2271 145.227 77.8382C144.986 77.7297 144.774 77.5772 144.605 77.3911C144.526 77.284 144.464 77.1676 144.421 77.0454C144.403 77.0009 144.386 76.9564 144.37 76.9114C144.217 76.5014 144.07 76.0895 143.926 75.6768C143.8 75.3162 143.725 74.8356 144.092 74.6416C144.282 74.5406 144.581 74.5234 144.627 74.3316C144.638 74.2549 144.618 74.1777 144.57 74.1129C144.571 74.1186 144.573 74.1239 144.573 74.1297C144.569 74.1235 144.565 74.1173 144.561 74.1112C144.367 73.8506 144.204 73.5737 144.072 73.2844C144.015 73.153 143.985 73.0142 143.981 72.8735C143.978 72.2121 144.671 71.728 145.324 71.403C145.978 71.0781 146.723 70.7426 146.967 70.1173C147.02 69.9185 147.085 69.7218 147.162 69.5292C147.299 69.3069 147.502 69.1218 147.75 68.9935C148.54 68.5353 149.482 68.3272 150.423 68.4026C150.814 68.4353 151.224 68.5142 151.586 68.3806C151.962 68.2412 152.196 67.9026 152.553 67.7285C153.129 67.4472 153.874 67.6725 154.364 68.0596C154.676 68.3056 154.908 68.6209 155.035 68.9727C155.179 69.3175 155.169 69.6976 155.008 70.0367C154.842 70.3638 154.515 70.6539 154.533 71.0124C154.541 71.1583 154.607 71.2977 154.62 71.4432C154.622 71.4613 154.62 71.4793 154.62 71.4974C154.63 71.5036 154.641 71.5089 154.652 71.515C155.324 71.9101 155.88 72.441 156.272 73.0635C156.664 73.6861 156.881 74.3823 156.906 75.0944C156.931 75.8065 156.763 76.5133 156.415 77.1561C156.067 77.7985 155.55 78.3589 154.906 78.7893C154.921 78.8316 154.936 78.8744 154.952 78.9162C155.042 79.1812 155.194 79.4259 155.4 79.6345C155.606 79.843 155.86 80.0097 156.145 80.1243L160.919 80.3563C160.919 80.3563 163.33 79.3175 165.541 82.3505C165.903 82.8563 166.179 83.407 166.358 83.9837C166.522 84.4929 166.945 85.3483 168.037 86.2888C169.786 87.7927 171.195 92.0423 169.247 93.1022C167.402 94.1058 166.559 94.1794 166.475 94.1842L166.5 94.2587C166.842 95.0326 169.819 101.697 171.29 102.163C171.696 102.293 171.696 102.464 171.476 102.647L171.477 102.647C171.477 102.647 171.496 102.69 171.531 102.767C171.76 103.251 172.679 105.08 173.87 105.916C175.25 106.883 177.973 114.069 177.973 114.069L180.243 118.101C180.243 118.101 180.894 120.822 181.448 121.162C181.762 121.355 183.594 125.271 185.12 128.626L200.788 123.83C202.209 123.396 203.375 122.481 204.031 121.287C204.687 120.094 204.778 118.72 204.285 117.467L180.237 56.3696C179.993 55.7493 179.612 55.1774 179.117 54.6866C178.623 54.1959 178.023 53.796 177.353 53.5094C176.683 53.2233 175.956 53.0557 175.212 53.0173C174.469 52.979 173.724 53.0698 173.02 53.2854Z" fill="#F9A826"/>
<path id="Vector_30" d="M165.503 49.5751L113.57 65.471C110.612 66.3766 109.046 69.2254 110.073 71.8343L134.121 132.932C135.148 135.541 138.379 136.922 141.338 136.016L193.271 120.121C196.229 119.215 197.795 116.366 196.768 113.757L172.72 52.6593C171.693 50.0504 168.462 48.6695 165.503 49.5751Z" stroke="black" stroke-miterlimit="10"/>
<path id="poster_2" d="M251.827 1.77896L94.4875 49.9376C92.0735 50.6766 90.7955 53.0015 91.6335 55.1303L127.63 146.582C128.468 148.71 131.105 149.837 133.519 149.098L290.858 100.94C293.272 100.201 294.55 97.8761 293.712 95.7473L257.716 4.29568C256.878 2.1668 254.241 1.04003 251.827 1.77896Z" stroke="black" stroke-miterlimit="10"/>
</g>
</g>
</svg>
