<svg width="473" height="347" viewBox="0 0 473 347" fill="none" xmlns="http://www.w3.org/2000/svg">
<rect width="473" height="347" fill="#E5E5E5"/>
<g id="undraw_Web_search_re_efla (1) 1" clip-path="url(#clip0_0:1)">
<path id="Vector" d="M424.221 11H-5V267.158H424.221V11Z" fill="#E6E6E6"/>
<path id="Vector_2" d="M413.674 34H9V242.875H413.674V34Z" fill="white"/>
<path id="Vector_3" d="M429.221 0H0V16.9921H429.221V0Z" fill="#F9A826"/>
<path id="Vector_4" d="M13.5507 11.8367C15.4173 11.8367 16.9304 10.4266 16.9304 8.68729C16.9304 6.94795 15.4173 5.53793 13.5507 5.53793C11.6842 5.53793 10.171 6.94795 10.171 8.68729C10.171 10.4266 11.6842 11.8367 13.5507 11.8367Z" fill="white"/>
<path id="Vector_5" d="M26.3792 11.8367C28.2458 11.8367 29.7589 10.4266 29.7589 8.68729C29.7589 6.94795 28.2458 5.53793 26.3792 5.53793C24.5127 5.53793 22.9995 6.94795 22.9995 8.68729C22.9995 10.4266 24.5127 11.8367 26.3792 11.8367Z" fill="white"/>
<path id="Vector_6" d="M39.2077 11.8367C41.0742 11.8367 42.5874 10.4266 42.5874 8.68729C42.5874 6.94795 41.0742 5.53793 39.2077 5.53793C37.3411 5.53793 35.828 6.94795 35.828 8.68729C35.828 10.4266 37.3411 11.8367 39.2077 11.8367Z" fill="white"/>
<path id="Vector_7" d="M153.209 54.0278H49.227V219.558H153.209V54.0278Z" fill="#E6E6E6"/>
<path id="Vector_8" d="M257.81 112.28H171.159V161.305H257.81V112.28Z" fill="#E6E6E6"/>
<path id="Vector_9" d="M257.81 173.994H171.159V219.558H257.81V173.994Z" fill="#E6E6E6"/>
<path id="Vector_10" d="M380.361 54.0278H276.379V126.165H380.361V54.0278Z" fill="#E6E6E6"/>
<path id="Vector_11" d="M380.361 147.421H276.379V219.558H380.361V147.421Z" fill="#E6E6E6"/>
<path id="Vector_12" d="M340.303 131.347V115.817C340.303 110.298 342.656 105.005 346.844 101.102C351.032 97.1992 356.713 95.0067 362.636 95.0067C368.559 95.0067 374.239 97.1992 378.427 101.102C382.615 105.005 384.968 110.298 384.968 115.817V131.347C384.967 132.088 384.651 132.799 384.088 133.323C383.526 133.847 382.763 134.142 381.968 134.143H343.303C342.508 134.142 341.745 133.847 341.183 133.323C340.621 132.799 340.304 132.088 340.303 131.347Z" fill="#2F2E41"/>
<path id="Vector_13" d="M395.658 333.453L387.781 335.484L375.624 308.14L387.25 305.142L395.658 333.453Z" fill="#FFB8B8"/>
<path id="Vector_14" d="M381.532 334.838L396.723 330.921L399.37 339.833L374.614 346.218C374.267 345.047 374.17 343.824 374.329 342.619C374.489 341.414 374.902 340.25 375.544 339.193C376.186 338.136 377.046 337.208 378.073 336.461C379.101 335.713 380.276 335.162 381.532 334.838V334.838Z" fill="#2F2E41"/>
<path id="Vector_15" d="M313.538 339.099H305.365L301.476 309.724H313.539L313.538 339.099Z" fill="#FFB8B8"/>
<path id="Vector_16" d="M299.527 336.923H315.289V346.171H289.603C289.603 344.956 289.859 343.754 290.358 342.632C290.857 341.51 291.588 340.49 292.509 339.631C293.431 338.773 294.525 338.091 295.729 337.627C296.933 337.162 298.223 336.923 299.527 336.923V336.923Z" fill="#2F2E41"/>
<path id="small-hand" d="M303.682 174.929C304.266 175.663 305.015 176.269 305.876 176.704C306.738 177.139 307.692 177.392 308.67 177.447C309.648 177.501 310.627 177.355 311.539 177.018C312.45 176.682 313.27 176.163 313.943 175.499L335.669 184.605L333.693 173.217L313.365 166.316C312.093 165.337 310.479 164.827 308.83 164.882C307.181 164.937 305.612 165.554 304.418 166.615C303.225 167.677 302.491 169.11 302.355 170.642C302.219 172.174 302.692 173.7 303.682 174.929H303.682Z" fill="#FFB8B8"/>
<path id="Vector_17" d="M348.823 243.41C341.997 243.41 334.931 242.462 328.991 239.644C325.839 238.178 323.044 236.121 320.784 233.602C318.523 231.083 316.844 228.156 315.853 225.005C312.758 215.874 316.66 206.903 320.434 198.228C322.772 192.853 324.98 187.775 325.554 182.77L325.754 180.994C326.646 173.013 327.417 166.12 331.685 163.535C333.897 162.195 336.871 162.118 340.778 163.3L377.473 174.408L376.124 239.318L375.901 239.387C375.709 239.448 362.773 243.41 348.823 243.41Z" fill="#2F2E41"/>
<path id="Vector_18" d="M340.137 143.093C340.137 143.093 358.136 138.123 372.135 139.987C372.135 139.987 364.136 180.986 366.802 194.653C369.469 208.319 320.471 199.933 330.47 186.888L333.804 171.358C333.804 171.358 327.137 165.146 333.137 157.691L340.137 143.093Z" fill="#F9A826"/>
<path id="Vector_19" d="M331.284 242.179L309.1 238.303L316.845 182.763C317.366 181.213 329.363 146.024 334.812 144.12C338.768 142.821 342.814 141.774 346.922 140.985L347.712 140.837L343.264 147.055L325.555 186.597L331.284 242.179Z" fill="#2F2E41"/>
<path id="Vector_20" d="M319.725 332.293L291.063 327.842L307.148 266.638L331.082 182.939L331.318 184.425C331.337 184.536 333.573 195.47 366.751 190.619L367.042 190.576L367.123 190.841L407.222 322.87L374.564 327.942L344.776 231.614L319.725 332.293Z" fill="#2F2E41"/>
<path id="Vector_21" d="M359.149 253L359.171 252.533C359.196 252.015 361.657 200.447 360.835 179.708C360.01 158.898 369.09 140.877 369.182 140.698L369.256 140.553L369.457 140.51C381.205 138.02 391.396 145.452 391.498 145.527L391.641 145.634L388.295 166.114L402.619 240.59L359.149 253Z" fill="#2F2E41"/>
<path id="Vector_22" d="M358.047 133.781C367.089 133.781 374.42 126.95 374.42 118.524C374.42 110.097 367.089 103.266 358.047 103.266C349.004 103.266 341.673 110.097 341.673 118.524C341.673 126.95 349.004 133.781 358.047 133.781Z" fill="#FFB8B8"/>
<path id="Vector_23" d="M335.02 117.059C335.025 112.695 336.888 108.511 340.2 105.425C343.512 102.338 348.002 100.603 352.686 100.598H356.019C360.703 100.603 365.193 102.338 368.505 105.425C371.817 108.511 373.68 112.695 373.685 117.059V117.37H366.641L364.238 111.101L363.758 117.37H360.117L358.905 114.207L358.663 117.37H335.02V117.059Z" fill="#2F2E41"/>
<path id="Vector_24" d="M356.435 135.889C356.105 135.472 355.907 134.976 355.866 134.458C355.824 133.941 355.94 133.423 356.2 132.965C359.733 126.704 364.678 115.136 358.114 108.002L357.642 107.49H376.699V134.151L359.387 136.998C359.212 137.027 359.034 137.041 358.856 137.042C358.384 137.042 357.918 136.937 357.497 136.737C357.076 136.536 356.712 136.246 356.435 135.889Z" fill="#2F2E41"/>
<path id="magnifying_glass" d="M279.707 25.8087C266.372 15.323 250.053 8.67522 232.737 6.67427C215.421 4.67331 197.854 7.40547 182.174 14.5383C166.494 21.6711 153.377 32.897 144.419 46.85C135.461 60.803 131.048 76.8815 131.718 93.1289C132.387 109.376 138.11 125.092 148.189 138.364C158.269 151.636 172.271 161.892 188.492 167.883C204.713 173.875 222.453 175.344 239.553 172.112C256.653 168.88 272.377 161.086 284.81 149.678L395.217 236.49C396.897 237.813 399.072 238.461 401.265 238.29C403.457 238.119 405.486 237.143 406.906 235.578C408.327 234.012 409.021 231.985 408.838 229.943C408.654 227.9 407.607 226.009 405.927 224.685L405.915 224.676L295.508 137.864C308.334 120.711 313.823 99.7125 310.9 78.9843C307.978 58.256 296.853 39.2921 279.707 25.8087ZM272.59 129.505C263.988 139.003 252.558 145.912 239.743 149.357C226.928 152.802 213.305 152.629 200.596 148.859C187.887 145.089 176.663 137.892 168.343 128.178C160.023 118.464 154.982 106.669 153.856 94.2848C152.73 81.9007 155.57 69.4836 162.018 58.6037C168.465 47.7238 178.229 38.8698 190.077 33.1613C201.924 27.4528 215.322 25.1462 228.576 26.5332C241.83 27.9202 254.345 32.9385 264.539 40.9535C271.307 46.2753 276.884 52.7872 280.952 60.1174C285.019 67.4476 287.498 75.4526 288.245 83.6754C288.993 91.8981 287.995 100.178 285.309 108.041C282.623 115.904 278.301 123.198 272.59 129.505Z" fill="#3F3D56"/>
<path id="inner_magnifying_glass" opacity="0.3" d="M177.562 137.007C164.625 126.834 156.267 112.499 154.147 96.8495C152.027 81.1998 156.301 65.3795 166.119 52.5299C164.829 53.7399 163.583 55.0072 162.379 56.3316C156.668 62.6386 152.346 69.9319 149.66 77.7953C146.974 85.6587 145.976 93.9382 146.724 102.161C147.471 110.384 149.95 118.389 154.017 125.719C158.085 133.049 163.662 139.561 170.43 144.883C177.198 150.205 185.025 154.232 193.464 156.735C201.902 159.238 210.787 160.168 219.611 159.471C228.435 158.775 237.026 156.465 244.892 152.675C252.758 148.885 259.747 143.688 265.458 137.381C266.658 136.055 267.789 134.697 268.85 133.306C256.909 144.487 240.893 151.074 223.981 151.759C207.07 152.445 190.5 147.179 177.562 137.007V137.007Z" fill="black"/>
<path id="full-hand_two" d="M364.182 209.191C365.134 209.408 366.125 209.428 367.086 209.249C368.047 209.07 368.955 208.697 369.744 208.156C370.534 207.615 371.187 206.92 371.656 206.118C372.126 205.317 372.402 204.429 372.464 203.518L395.418 197.581L386.5 191.5L365.72 196.8C364.07 196.805 362.479 197.373 361.249 198.398C360.019 199.422 359.234 200.832 359.045 202.359C358.855 203.886 359.273 205.425 360.22 206.685C361.167 207.944 362.576 208.836 364.182 209.191Z" fill="#FFB8B8"/>
<path id="Vector_25" d="M472.333 347H218.345C218.168 347 217.999 346.935 217.874 346.818C217.749 346.702 217.678 346.544 217.678 346.379C217.678 346.214 217.749 346.056 217.874 345.94C217.999 345.823 218.168 345.758 218.345 345.758H472.333C472.51 345.758 472.68 345.823 472.805 345.94C472.93 346.056 473 346.214 473 346.379C473 346.544 472.93 346.702 472.805 346.818C472.68 346.935 472.51 347 472.333 347Z" fill="#CCCCCC"/>
<path id="lower-arm" d="M379 192.735L380.774 204L381.161 203.923C382.037 203.747 401.505 198.628 407 196.5C412.697 194.294 404.449 182.761 404.449 180L399.194 184.865L379 192.735Z" fill="#2F2E41"/>
<path id="upper-arm" d="M385 169.65L397.5 188L407 186.976L414 185.795C414 181.488 394.565 149.149 392.067 145.19L387.128 147.798L385 169.65Z" fill="#2F2E41"/>
<path id="elbow" d="M414.5 185L396.638 185.966L390 187.897L399.181 199C410.926 196.586 411.436 189.503 414.5 185Z" fill="#2F2E41"/>
</g>
<defs>
<clipPath id="clip0_0:1">
<rect width="473" height="347" fill="white"/>
</clipPath>
</defs>
</svg>
